<svg xmlns="http://www.w3.org/2000/svg" width="200" height="200" viewBox="0 0 200 200" role="img" aria-label="Elyzian">
  <rect width="200" height="200" rx="46" fill="#191d23"/>
  <circle cx="100" cy="100" r="84" fill="none" stroke="#272e39" stroke-width="1.5"/>
  <circle cx="100" cy="100" r="66" fill="none" stroke="#232a34" stroke-width="1.5"/>
  <g fill="#c6a659" transform="translate(100 100) scale(1.5) translate(-50 -50)">
    <path d="M50 9 C 44.5 21, 43 33, 50 47 C 57 33, 55.5 21, 50 9 Z" transform="rotate(0 50 50)"/>
    <path d="M50 9 C 44.5 21, 43 33, 50 47 C 57 33, 55.5 21, 50 9 Z" transform="rotate(60 50 50)"/>
    <path d="M50 9 C 44.5 21, 43 33, 50 47 C 57 33, 55.5 21, 50 9 Z" transform="rotate(120 50 50)"/>
    <path d="M50 9 C 44.5 21, 43 33, 50 47 C 57 33, 55.5 21, 50 9 Z" transform="rotate(180 50 50)"/>
    <path d="M50 9 C 44.5 21, 43 33, 50 47 C 57 33, 55.5 21, 50 9 Z" transform="rotate(240 50 50)"/>
    <path d="M50 9 C 44.5 21, 43 33, 50 47 C 57 33, 55.5 21, 50 9 Z" transform="rotate(300 50 50)"/>
  </g>
</svg>
